<?xml version="1.0" standalone="no"?><!DOCTYPE svg PUBLIC "-//W3C//DTD SVG 1.1//EN" "http://www.w3.org/Graphics/SVG/1.1/DTD/svg11.dtd"><svg t="1694511203933" class="icon" viewBox="0 0 2657 1024" version="1.1" xmlns="http://www.w3.org/2000/svg" p-id="1479" xmlns:xlink="http://www.w3.org/1999/xlink" width="332.125" height="128"><path d="M704.119941 97.794436c0 55.416847 45.637404 97.794436 97.794436 97.794436 55.416847 0 97.794436-45.637404 97.794436-97.794436s-45.637404-97.794436-97.794436-97.794436c-55.416847 0-97.794436 45.637404-97.794436 97.794436z" fill="#C60015" p-id="1480"></path><path d="M2630.670334 1013.802322H2510.057196v-39.117774l-6.519629-3.259815c-3.259815 3.259815-3.259815 6.519629-6.519629 13.039258-32.598145 35.85796-81.495364 48.897218-127.132767 32.598146-19.558887-6.519629-35.85796-26.078516-39.117774-45.637404-3.259815-13.039258-3.259815-26.078516-3.259815-39.117774V371.618858c0-22.818702 3.259815-45.637404 13.039258-65.196291 16.299073-45.637404 52.157033-61.936476 97.794436-45.637404l39.117775 19.558888c13.039258 9.779444 22.818702 19.558887 39.117774 35.857959V71.71592h114.093509v942.086402zM2510.057196 638.92365c0-81.495364 0-159.730912 3.259815-241.226276 0-29.338331-16.299073-48.897218-35.85796-65.196291-16.299073-13.039258-29.338331-9.779444-35.85796 13.039258-3.259815 19.558887-6.519629 39.117774-6.519629 61.936477v462.893664c0 13.039258 3.259815 29.338331 6.519629 42.377589 3.259815 6.519629 9.779444 13.039258 19.558887 16.299073 19.558887 6.519629 52.157033-22.818702 52.157033-45.637403-3.259815-78.235549-3.259815-162.990727-3.259815-244.486091zM0 84.755178h365.099229v120.613138H251.00572v811.693821h-130.392582v-814.953635H0V84.755178z m391.177745 0h130.392582v221.667389c6.519629-3.259815 16.299073-6.519629 22.818701-9.779444 32.598145-13.039258 61.936476-26.078516 94.534622-32.598145 35.85796-6.519629 55.416847 13.039258 58.676662 48.897218v707.379755h-123.872953v-22.818702-622.624577c0-9.779444-6.519629-19.558887-6.519629-29.338331-9.779444 6.519629-22.818702 9.779444-26.078516 16.299073-9.779444 16.299073-16.299073 35.85796-16.299073 55.416847v603.06569h-130.392582V84.755178z m821.473264 935.566773h-123.872952V381.398301v-19.558887c0-6.519629-3.259815-16.299073-6.519629-16.299073-3.259815-3.259815-13.039258 0-19.558888 6.519629-19.558887 16.299073-29.338331 35.85796-29.338331 61.936477v606.325504h-130.392581v-749.757344h130.392581c0 13.039258 3.259815 22.818702 3.259815 29.338331l97.794436-39.117775H1173.533235c22.818702 3.259815 32.598145 19.558887 35.85796 39.117775 0 9.779444 3.259815 16.299073 3.259814 26.078516v694.340497z m958.385475-55.416847c-19.558887 16.299073-39.117774 29.338331-58.676662 42.377589-35.85796 22.818702-71.71592 16.299073-107.573879 0-19.558887-9.779444-26.078516-29.338331-26.078517-48.897218V651.962908c0-22.818702 13.039258-45.637404 29.338331-58.676662 22.818702-16.299073 45.637404-29.338331 71.71592-45.637403 9.779444-6.519629 22.818702-13.039258 32.598145-19.558887 52.157033-35.85796 71.71592-101.054251 55.416848-162.990727-3.259815-6.519629-6.519629-9.779444-13.039259-13.039259-22.818702-6.519629-65.196291 6.519629-65.19629 42.377589v133.652397h-117.353324c0-45.637404-3.259815-91.274807 0-136.912211 3.259815-65.196291 71.71592-127.132767 143.43184-130.392582 26.078516 0 55.416847 0 81.495363 3.259815 35.85796 6.519629 65.196291 26.078516 74.975735 61.936476 9.779444 29.338331 19.558887 58.676662 19.558887 91.274807 3.259815 195.588872 3.259815 394.437559 3.259815 590.026432 0 13.039258-3.259815 16.299073-16.299073 16.299073h-91.274807c-13.039258 0-19.558887-3.259815-16.299073-16.299073v-42.377589z m9.779444-368.359043c-45.637404 19.558887-84.755178 42.377589-88.014993 91.274807-6.519629 74.975734 0 149.951469 0 221.667389 0 6.519629 9.779444 19.558887 19.558887 19.558887 26.078516 6.519629 71.71592-29.338331 71.71592-55.416847v-257.525349c-3.259815-6.519629-3.259815-13.039258-3.259814-19.558887z m-427.035705 0v420.516076h-117.353324V84.755178H1828.755957c71.71592 0 120.613138 48.897218 120.613138 120.613138v257.525349c0 78.235549-52.157033 130.392582-133.652396 133.652396h-61.936476z m0-433.555334v303.162752c0 48.897218 0 48.897218 48.897218 45.637404 29.338331 0 39.117774-13.039258 39.117775-42.377589V215.14776c0-26.078516-13.039258-42.377589-39.117775-48.897218-13.039258-3.259815-29.338331-3.259815-48.897218-3.259815zM1369.122107 1020.321951h-117.353323V81.495364H1369.122107v938.826587z m91.274807-769.316231h127.132767c-16.299073 61.936476-29.338331 120.613138-42.377589 179.289799-13.039258 58.676662-29.338331 114.093509-42.377589 172.770171v26.078516c29.338331 127.132767 55.416847 254.265534 84.755178 378.138487v9.779444h-143.431839c-6.519629-35.85796-13.039258-71.71592-19.558888-104.314066-16.299073-88.014993-32.598145-179.2898-48.897218-267.304792-3.259815-9.779444-3.259815-19.558887 0-29.338331 29.338331-120.613138 58.676662-244.486091 84.755178-365.099228zM857.331224 1020.321951h-117.353323V264.044978h117.353323v756.276973z" fill="#1E1E1E" p-id="1481"></path></svg>